<svg width="423" height="422" xmlns="http://www.w3.org/2000/svg" xmlns:xlink="http://www.w3.org/1999/xlink" xml:space="preserve" overflow="hidden"><defs><clipPath id="clip0"><rect x="2705" y="723" width="423" height="422"/></clipPath></defs><g clip-path="url(#clip0)" transform="translate(-2705 -723)"><path d="M2705 934C2705 817.468 2799.69 723 2916.5 723 3033.31 723 3128 817.468 3128 934 3128 1050.53 3033.31 1145 2916.5 1145 2799.69 1145 2705 1050.53 2705 934Z" fill="#215F9A" fill-rule="evenodd"/><g><g><g><path d="M3017.9 945.561 2998.68 938.791C2996.9 938.128 2994.92 939.033 2994.26 940.811 2993.59 942.59 2994.5 944.57 2996.28 945.233 2996.32 945.248 2996.36 945.262 2996.4 945.275L3015.53 952.013C3019.07 953.392 3020.82 957.378 3019.44 960.916 3018.06 964.455 3014.07 966.205 3010.53 964.825L2988.27 956.945C2986.48 956.311 2984.52 957.247 2983.88 959.037 2983.25 960.826 2984.18 962.791 2985.97 963.425L3008.16 971.278C3015.25 973.976 3023.2 970.41 3025.89 963.311 3028.59 956.213 3025.03 948.271 3017.93 945.573 3017.92 945.569 3017.91 945.565 3017.9 945.561Z" fill="#FFFFFF"/><path d="M3031.48 879.512 3030.17 878.201 3031.35 860.785C3031.79 854.613 3029.74 848.523 3025.66 843.873 3022.24 839.73 3017.73 836.62 3012.65 834.889L3012.65 821.944C3012.65 818.147 3009.57 815.069 3005.77 815.069 3004.06 815.069 3002.41 815.706 3001.15 816.856L2987.97 828.829C2987.88 828.906 2987.8 828.988 2987.72 829.074 2986.95 829.939 2986 830.632 2984.94 831.108L2977.79 834.344C2968.24 838.644 2960.28 845.819 2955.01 854.866L2939.98 880.575C2938 883.942 2934.55 886.181 2930.67 886.619L2910.75 888.823C2897.14 890.557 2884.14 895.508 2872.82 903.268L2859.82 912.208C2850.23 918.736 2842.28 927.396 2836.59 937.51 2834.44 941.208 2832.89 945.221 2831.99 949.401 2818.8 968.545 2785.86 977 2749.7 970.425 2747.83 970.081 2746.04 971.316 2745.69 973.182 2745.35 975.049 2746.58 976.842 2748.45 977.186 2748.46 977.188 2748.46 977.189 2748.47 977.19 2756.66 978.695 2764.98 979.461 2773.31 979.479 2797.14 979.479 2817.99 972.855 2830.92 960.991 2830.91 961.791 2830.89 962.553 2830.89 963.413 2830.89 980.102 2838.17 987.201 2844.61 993.465 2850.15 998.872 2854.95 1003.54 2854.95 1014.38 2854.96 1021.97 2861.11 1028.12 2868.7 1028.12L2913.38 1028.12C2920.98 1028.12 2927.13 1021.97 2927.13 1014.38 2927.13 1006.78 2920.98 1000.63 2913.38 1000.63L2902.54 1000.63C2905.35 998.349 2907.74 995.603 2909.6 992.508 2916.7 991.782 2942.97 988.617 2955.81 980.524L2980.93 1005.1C2986.35 1010.42 2995.06 1010.33 3000.38 1004.91 3000.6 1004.68 3000.82 1004.44 3001.03 1004.19 3005.68 998.475 3005.13 990.14 2999.78 985.072L2980.52 966.188C2979.42 965.101 2979.18 963.41 2979.93 962.056L2993.72 937.394C2996.39 932.643 2998.07 927.408 2998.68 921.996L3000.34 907.296C3000.49 905.933 3001.64 904.903 3003.01 904.904L3010.83 904.904C3015.25 904.894 3019.55 903.482 3023.12 900.869L3030.26 895.609C3034.99 892.123 3036 885.459 3032.52 880.725 3032.2 880.296 3031.85 879.891 3031.48 879.514ZM2993.5 906.523 2992.93 911.599 2947.96 880.544 2950.76 875.766 2993.73 905.445C2993.63 905.8 2993.56 906.16 2993.5 906.523ZM2987.72 934.038 2973.93 958.7C2971.67 962.762 2972.4 967.836 2975.71 971.097L2994.97 989.979C2997.71 992.535 2998.06 996.748 2995.8 999.729 2993.19 1002.63 2988.72 1002.87 2985.81 1000.26 2985.79 1000.23 2985.76 1000.21 2985.74 1000.19L2944.35 959.699C2942.99 958.371 2940.82 958.396 2939.49 959.753 2938.16 961.11 2938.19 963.287 2939.54 964.615L2950.71 975.536C2941.24 980.772 2923.6 983.889 2912.82 985.226 2915.29 976.838 2914.08 967.795 2909.5 960.351 2908.5 958.734 2906.38 958.231 2904.77 959.227 2903.15 960.222 2902.65 962.34 2903.64 963.957 2910.6 975.282 2907.06 990.105 2895.73 997.063 2891.95 999.391 2887.59 1000.62 2883.14 1000.63L2882.45 1000.63C2880.55 1000.63 2879.01 1002.16 2879.01 1004.06 2879.01 1005.96 2880.55 1007.5 2882.45 1007.5L2913.38 1007.5C2917.18 1007.5 2920.26 1010.58 2920.26 1014.38 2920.26 1018.17 2917.18 1021.25 2913.38 1021.25L2868.7 1021.25C2864.9 1021.25 2861.83 1018.17 2861.82 1014.38 2861.82 1000.64 2855.22 994.213 2849.4 988.541 2843.41 982.71 2837.76 977.202 2837.76 963.413 2837.76 952.445 2838.76 947.803 2842.61 940.835 2847.78 931.655 2855 923.795 2863.71 917.872L2876.72 908.933C2887.11 901.803 2899.05 897.25 2911.55 895.65L2931.43 893.452C2936.48 892.875 2941.1 890.328 2944.29 886.363L2992.06 919.351 2991.84 921.224C2991.34 925.728 2989.94 930.084 2987.72 934.038ZM3026.18 890.072 3019.04 895.332C3016.66 897.084 3013.78 898.029 3010.83 898.029L3003.01 898.029C3001.07 898.035 2999.17 898.637 2997.58 899.754L2954.24 869.815 2960.95 858.334C2965.51 850.53 2972.39 844.337 2980.62 840.609L2987.78 837.372C2989.65 836.529 2991.32 835.317 2992.71 833.807L3005.71 821.996C3005.73 821.983 3005.75 821.984 3005.76 821.998 3005.77 822.005 3005.77 822.013 3005.77 822.021L3005.77 837.387C3005.77 838.911 3006.77 840.253 3008.24 840.685 3013.02 841.856 3017.31 844.544 3020.44 848.348 3023.33 851.641 3024.78 855.947 3024.49 860.316L3023.28 878.16C3023.16 879.871 3023.79 881.549 3025 882.761L3026.61 884.372C3028.08 885.844 3028.08 888.231 3026.61 889.702 3026.48 889.836 3026.33 889.959 3026.18 890.071Z" fill="#FFFFFF"/><path d="M3017.2 864.844C3017.2 867.692 3014.89 870 3012.04 870 3009.2 870 3006.89 867.692 3006.89 864.844 3006.89 861.996 3009.2 859.688 3012.04 859.688 3014.89 859.688 3017.2 861.996 3017.2 864.844Z" fill="#FFFFFF"/></g></g></g></g></svg>