<svg width="434" height="437" xmlns="http://www.w3.org/2000/svg" xmlns:xlink="http://www.w3.org/1999/xlink" xml:space="preserve" overflow="hidden"><g transform="translate(-1600 -616)"><path d="M1600 834.5C1600 713.826 1697.15 616 1817 616 1936.85 616 2034 713.826 2034 834.5 2034 955.174 1936.85 1053 1817 1053 1697.15 1053 1600 955.174 1600 834.5Z" fill="#C1E5F5" fill-rule="evenodd"/><g><g><g><path d="M1798.53 969.812C1798.64 969.812 1798.75 969.812 1798.85 969.812 1800.63 969.811 1802.11 968.461 1802.27 966.695 1802.29 966.495 1804.47 946.53 1815.34 946.53L1815.34 946.53C1849.25 946.53 1876.52 935.829 1892.17 916.397 1902.59 904.098 1906.96 887.789 1904.1 871.93 1901.05 858.039 1884.54 840.05 1863.63 817.273 1829.75 780.361 1787.57 734.43 1788.01 687.965 1788.02 686.072 1786.5 684.523 1784.61 684.5 1782.78 684.414 1781.23 685.826 1781.15 687.654 1781.14 687.738 1781.14 687.822 1781.14 687.906 1780.7 737.063 1823.89 784.122 1858.59 821.928 1877.99 843.065 1894.76 861.321 1897.4 873.401 1899.83 887.227 1895.96 901.415 1886.84 912.09 1872.53 929.865 1847.15 939.655 1815.36 939.655L1815.34 939.655C1798.1 939.655 1795.53 964.976 1795.43 966.055 1795.24 967.945 1796.63 969.626 1798.52 969.811 1798.52 969.811 1798.53 969.812 1798.53 969.812Z"/><path d="M1745.32 883.06C1746.77 881.835 1746.95 879.666 1745.73 878.216 1744.54 876.811 1742.46 876.59 1741 877.715 1727.26 888.801 1725.11 908.928 1736.19 922.669 1742.27 930.198 1751.43 934.572 1761.1 934.564 1776.59 934.564 1791.74 924.011 1805.1 914.699 1815.68 907.329 1825.67 900.365 1833.29 900.365 1837.53 900.255 1841.34 902.945 1842.65 906.978 1843.22 909.494 1841.79 912.031 1839.35 912.853 1832.47 916.291 1825.13 916.291 1810.47 916.291 1808.57 916.291 1807.03 917.829 1807.03 919.728 1807.03 921.627 1808.57 923.166 1810.47 923.166 1826.19 923.166 1834.08 923.166 1842.41 919.006 1847.72 916.763 1850.64 911.017 1849.33 905.404 1847.26 898.275 1840.69 893.401 1833.27 893.493 1823.49 893.493 1812.65 901.056 1801.15 909.061 1788.61 917.793 1774.41 927.693 1761.08 927.693 1747.22 927.706 1735.97 916.482 1735.96 902.623 1735.95 895.025 1739.39 887.833 1745.3 883.064Z"/></g></g></g></g></svg>